<?xml version="1.0" encoding="UTF-8" standalone="no"?>
<!-- Created with Inkscape (http://www.inkscape.org/) -->

<svg
   xmlns:dc="http://purl.org/dc/elements/1.1/"
   xmlns:cc="http://creativecommons.org/ns#"
   xmlns:rdf="http://www.w3.org/1999/02/22-rdf-syntax-ns#"
   xmlns:svg="http://www.w3.org/2000/svg"
   xmlns="http://www.w3.org/2000/svg"
   xmlns:sodipodi="http://sodipodi.sourceforge.net/DTD/sodipodi-0.dtd"
   xmlns:inkscape="http://www.inkscape.org/namespaces/inkscape"
   width="100mm"
   height="100mm"
   viewBox="0 0 100 100"
   version="1.1"
   id="svg8"
   inkscape:version="0.92.1 r15371"
   sodipodi:docname="chickendiner.svg">
  <defs
     id="defs2" />
  <sodipodi:namedview
     id="base"
     pagecolor="#ffffff"
     bordercolor="#666666"
     borderopacity="1.0"
     inkscape:pageopacity="0.0"
     inkscape:pageshadow="2"
     inkscape:zoom="0.35"
     inkscape:cx="-27.142857"
     inkscape:cy="560"
     inkscape:document-units="mm"
     inkscape:current-layer="g20"
     showgrid="false"
     inkscape:window-width="1920"
     inkscape:window-height="1017"
     inkscape:window-x="-8"
     inkscape:window-y="-8"
     inkscape:window-maximized="1"
     inkscape:measure-start="0,0"
     inkscape:measure-end="0,0" />
  <metadata
     id="metadata5">
    <rdf:RDF>
      <cc:Work
         rdf:about="">
        <dc:format>image/svg+xml</dc:format>
        <dc:type
           rdf:resource="http://purl.org/dc/dcmitype/StillImage" />
        <dc:title></dc:title>
      </cc:Work>
    </rdf:RDF>
  </metadata>
  <g
     inkscape:label="Layer 1"
     inkscape:groupmode="layer"
     id="layer1"
     transform="translate(0,-197)">
    <g
       id="g20"
       transform="matrix(0.20291434,0,0,0.20291434,3.9779367,44.447654)">
      <path
         style="fill:#d4aa00;stroke-width:3.40262842"
         d="m 30.478335,1210.8542 c -4.918723,-0.7788 -12.256282,-4.9389 -16.305718,-9.2448 -9.3353664,-9.9268 -13.44644037,-32.0592 -6.7425884,-36.2995 5.2654964,-3.3306 431.6386414,-4.3458 440.2408014,-1.0483 8.70567,3.3372 6.98167,26.3095 -2.82974,37.7062 l -8.21475,9.542 -198.60245,0.3801 c -109.23135,0.2091 -202.626844,-0.257 -207.545555,-1.0357 z"
         id="path35"
         inkscape:connector-curvature="0" />
      <path
         style="fill:#d4aa00;stroke-width:3.40262842"
         d="m 119.42482,1138.5375 c -39.109512,-2.9422 -52.286604,-10.349 -66.813817,-37.5557 -5.265342,-9.861 -6.357841,-19.4877 -6.368231,-56.1141 -0.01192,-41.9826 0.489985,-45.2398 9.956326,-64.6164 18.269207,-37.39504 60.971882,-71.11815 107.249692,-84.69708 10.17005,-2.98411 22.39195,-5.42565 27.15976,-5.42565 8.46275,0 8.37445,0.24234 -3.71511,10.19723 -27.04291,22.26787 -37.15553,63.88968 -23.87741,98.2752 7.23235,18.7291 15.31417,24.589 23.13603,16.7753 5.16486,-5.1595 5.13879,-6.7133 -0.35379,-21.0804 -7.72316,-20.2018 -5.80684,-52.75717 3.88229,-65.95337 12.26315,-16.70194 36.99652,-30.59046 65.12469,-36.56945 79.68926,-16.93893 101.25144,-32.18931 110.30186,-78.01373 5.81353,-29.43523 23.01544,-42.26656 45.24126,-33.74659 6.6348,2.54337 15.47231,18.68584 15.47231,28.2615 0,4.53208 2.92891,7.64016 8.52104,9.04223 10.21081,2.56009 25.52295,19.77935 25.52295,28.70181 0,10.74286 -7.1268,22.75807 -15.85538,26.73095 -4.56267,2.07674 -16.53206,3.77589 -26.5986,3.77589 -14.45367,0 -20.38621,1.75124 -28.20962,8.32737 -16.20339,13.62008 -30.09879,44.47526 -41.96231,93.17869 -6.0813,24.9655 -14.29614,50.1936 -18.25524,56.0624 -16.48965,24.4435 -50.32352,32.5217 -79.95935,19.091 -13.63276,-6.1782 -15.59679,-6.3288 -20.36868,-1.5619 -13.32885,13.3149 15.409,29.7097 52.07731,29.7097 28.94574,0 46.13864,-7.1627 62.86081,-26.1884 13.46599,-15.321 17.86137,-25.9239 27.52192,-66.3905 4.24208,-17.7695 8.88158,-33.54958 10.30999,-35.06685 1.42842,-1.51728 8.96742,4.47087 16.75338,13.30699 33.32274,37.81716 33.85444,112.04166 1.06242,148.30086 -23.99286,26.5296 -24.19882,26.5666 -144.35604,25.9588 -58.5877,-0.2963 -119.54491,-1.5184 -135.46046,-2.7158 z"
         id="path37"
         inkscape:connector-curvature="0" />
    </g>
  </g>
</svg>
