<?xml version="1.0" encoding="UTF-8" standalone="no"?>
<!-- Created with Inkscape (http://www.inkscape.org/) -->

<svg
   xmlns:dc="http://purl.org/dc/elements/1.1/"
   xmlns:cc="http://creativecommons.org/ns#"
   xmlns:rdf="http://www.w3.org/1999/02/22-rdf-syntax-ns#"
   xmlns:svg="http://www.w3.org/2000/svg"
   xmlns="http://www.w3.org/2000/svg"
   xmlns:xlink="http://www.w3.org/1999/xlink"
   xmlns:sodipodi="http://sodipodi.sourceforge.net/DTD/sodipodi-0.dtd"
   xmlns:inkscape="http://www.inkscape.org/namespaces/inkscape"
   width="181.35786mm"
   height="113.49642mm"
   viewBox="0 0 181.35786 113.49642"
   version="1.1"
   id="svg8"
   inkscape:version="0.92.1 r15371"
   sodipodi:docname="ical.svg">
  <defs
     id="defs2">
    <clipPath
       clipPathUnits="userSpaceOnUse"
       id="clipPath3785">
      <g
         id="use3787"
         inkscape:label="Clip">
        <a
           id="a3811">
          <path
             inkscape:connector-curvature="0"
             id="path3809"
             d="m 41.708673,234.85566 c -1.663854,-0.25133 -2.442303,-0.62135 -5.479026,-2.60434 -1.796222,-1.17295 -3.735269,-2.78926 -4.821288,-4.01882 -1.988325,-2.25114 -2.864075,-3.31237 -4.177525,-5.06228 -1.463619,-1.95 -3.830674,-5.48182 -4.522935,-6.74856 -0.220917,-0.40425 -0.988507,-1.69716 -1.705758,-2.87315 -1.391394,-2.28129 -2.413186,-4.22173 -2.937616,-5.57869 -0.177652,-0.45968 -0.602504,-1.49727 -0.944115,-2.30576 -1.24749,-2.95243 -2.108644,-5.64353 -2.5248,-7.88999 -0.10949,-0.59104 -0.354285,-1.7622 -0.543988,-2.60257 -0.189703,-0.84038 -0.506952,-2.73216 -0.704996,-4.20396 -0.331138,-2.4609 -0.360457,-3.04658 -0.364755,-7.2864 -0.0045,-4.39992 0.01273,-4.72631 0.376485,-7.14946 0.587732,-3.91513 1.206271,-6.10179 2.931238,-10.36251 1.719321,-4.24678 3.396411,-6.74814 6.970675,-10.39672 2.425581,-2.476 4.442566,-3.90064 8.056192,-5.69026 2.673985,-1.32427 3.884142,-1.61918 7.473612,-1.82127 5.534702,-0.31162 8.471217,0.16756 13.141658,2.14446 5.120748,2.1675 5.388721,2.26544 6.767433,2.47325 1.571604,0.23688 2.417802,0.24956 3.671654,0.055 0.911495,-0.14142 1.379802,-0.3365 5.225566,-2.17674 2.701047,-1.29249 5.504635,-2.14707 8.456423,-2.57768 2.33085,-0.34003 8.51926,-0.3428 10.49033,-0.005 4.7601,0.8165 9.13592,3.59998 13.646013,8.68028 0.79482,0.89531 0.91953,1.10468 0.91544,1.5368 -0.003,0.27516 -0.0778,0.63018 -0.16704,0.78893 -0.20073,0.35696 -2.574483,2.47721 -4.117193,3.6775 -1.90738,1.48402 -2.9565,2.85216 -4.71811,6.15286 -1.90311,3.56582 -2.5925,7.13434 -2.44685,12.66572 0.11597,4.40403 0.51498,6.04448 2.42676,9.97704 0.83807,1.72393 1.408,2.68576 2.29634,3.87541 1.33219,1.78405 3.76576,4.35771 5.24963,5.55183 1.125653,0.90585 3.275803,2.37819 3.473013,2.37819 0.25732,0 0.54725,0.6029 0.54725,1.138 0,1.14544 -1.77866,6.53253 -3.10993,9.41914 -0.641453,1.39088 -1.671093,3.10168 -2.556103,4.24712 -0.4108,0.53169 -1.64063,2.30426 -2.73296,3.93905 -2.13471,3.19484 -2.37914,3.51535 -4.14235,5.4317 -1.97991,2.15188 -2.50949,2.62849 -4.17446,3.75695 -2.59545,1.75911 -5.03699,2.7395 -7.21954,2.89899 -1.49671,0.10936 -2.73844,-0.26592 -6.01566,-1.8181 -0.633997,-0.30027 -2.167456,-0.87449 -3.407693,-1.27603 -5.179332,-1.67689 -5.848582,-1.78954 -9.28054,-1.56203 -3.375687,0.22378 -4.175676,0.46506 -10.681039,3.22148 -0.477745,0.20243 -1.379778,0.5828 -2.004523,0.84528 -2.250877,0.94565 -4.917943,1.41134 -6.614919,1.15502 z"
             style="fill:#ffffff;fill-opacity:1;stroke-width:0.13363476" />
        </a>
        <path
           style="fill:#ffffff;fill-opacity:1;stroke-width:0.13363476"
           d="m 59.258406,146.83484 c -0.270026,-0.0285 -0.560295,-0.13536 -0.645039,-0.23747 -0.307906,-0.371 -0.322175,-2.56825 -0.02604,-4.00892 0.478605,-2.3283 2.315123,-6.96971 3.542734,-8.95353 1.530377,-2.47308 5.215723,-6.39397 7.672316,-8.16268 2.251591,-1.62111 2.455519,-1.74849 4.14274,-2.58765 1.80058,-0.89555 3.22615,-1.30735 4.94925,-1.42966 1.36579,-0.0969 2.06504,0.0693 2.3923,0.56876 0.32404,0.49455 0.17161,2.63361 -0.35127,4.9295 -1.02053,4.48094 -3.32414,8.8027 -6.60706,12.39538 -3.551685,3.88681 -7.232764,6.11501 -11.973105,7.24746 -1.320795,0.31553 -1.92696,0.36227 -3.096837,0.23881 z"
           id="path3813"
           inkscape:connector-curvature="0" />
        <flowRoot
           xml:space="preserve"
           id="flowRoot3823"
           style="font-style:normal;font-weight:normal;font-size:40px;line-height:1.25;font-family:sans-serif;letter-spacing:0px;word-spacing:0px;fill:#000000;fill-opacity:1;stroke:none"
           transform="matrix(1.3571941,0,0,1.3571941,-464.06426,-160.56294)"><flowRegion
             id="flowRegion3817"><rect
               id="rect3815"
               width="350"
               height="315"
               x="416"
               y="236.70081" /></flowRegion><flowPara
             id="flowPara3821"><flowSpan
               style="fill:#ffffff"
               id="flowSpan3819">Ical</flowSpan></flowPara></flowRoot>      </g>
    </clipPath>
    <clipPath
       clipPathUnits="userSpaceOnUse"
       id="clipPath3785-7">
      <use
         x="0"
         y="0"
         xlink:href="#g3781"
         id="use3787-2"
         width="100%"
         height="100%" />
    </clipPath>
  </defs>
  <sodipodi:namedview
     id="base"
     pagecolor="#ffffff"
     bordercolor="#666666"
     borderopacity="1.0"
     inkscape:pageopacity="0.0"
     inkscape:pageshadow="2"
     inkscape:zoom="1"
     inkscape:cx="177.78468"
     inkscape:cy="311.65188"
     inkscape:document-units="mm"
     inkscape:current-layer="layer1"
     showgrid="false"
     inkscape:window-width="1920"
     inkscape:window-height="1017"
     inkscape:window-x="-8"
     inkscape:window-y="-8"
     inkscape:window-maximized="1"
     fit-margin-top="0"
     fit-margin-left="0"
     fit-margin-right="0"
     fit-margin-bottom="0" />
  <metadata
     id="metadata5">
    <rdf:RDF>
      <cc:Work
         rdf:about="">
        <dc:format>image/svg+xml</dc:format>
        <dc:type
           rdf:resource="http://purl.org/dc/dcmitype/StillImage" />
        <dc:title></dc:title>
      </cc:Work>
    </rdf:RDF>
  </metadata>
  <g
     inkscape:label="Layer 1"
     inkscape:groupmode="layer"
     id="layer1"
     transform="translate(-9.8627325,-126.21637)"
     style="opacity:1">
    <g
       transform="translate(-3.118624,4.7877877)"
       style="opacity:1"
       id="g3783"
       clip-path="url(#clipPath3785-7)">
      <g
         inkscape:label="Clip"
         id="g3781">
        <a
           id="a100">
          <path
             style="fill:#ffffff;fill-opacity:1;stroke-width:0.13363476"
             d="m 41.708673,234.85566 c -1.663854,-0.25133 -2.442303,-0.62135 -5.479026,-2.60434 -1.796222,-1.17295 -3.735269,-2.78926 -4.821288,-4.01882 -1.988325,-2.25114 -2.864075,-3.31237 -4.177525,-5.06228 -1.463619,-1.95 -3.830674,-5.48182 -4.522935,-6.74856 -0.220917,-0.40425 -0.988507,-1.69716 -1.705758,-2.87315 -1.391394,-2.28129 -2.413186,-4.22173 -2.937616,-5.57869 -0.177652,-0.45968 -0.602504,-1.49727 -0.944115,-2.30576 -1.24749,-2.95243 -2.108644,-5.64353 -2.5248,-7.88999 -0.10949,-0.59104 -0.354285,-1.7622 -0.543988,-2.60257 -0.189703,-0.84038 -0.506952,-2.73216 -0.704996,-4.20396 -0.331138,-2.4609 -0.360457,-3.04658 -0.364755,-7.2864 -0.0045,-4.39992 0.01273,-4.72631 0.376485,-7.14946 0.587732,-3.91513 1.206271,-6.10179 2.931238,-10.36251 1.719321,-4.24678 3.396411,-6.74814 6.970675,-10.39672 2.425581,-2.476 4.442566,-3.90064 8.056192,-5.69026 2.673985,-1.32427 3.884142,-1.61918 7.473612,-1.82127 5.534702,-0.31162 8.471217,0.16756 13.141658,2.14446 5.120748,2.1675 5.388721,2.26544 6.767433,2.47325 1.571604,0.23688 2.417802,0.24956 3.671654,0.055 0.911495,-0.14142 1.379802,-0.3365 5.225566,-2.17674 2.701047,-1.29249 5.504635,-2.14707 8.456423,-2.57768 2.33085,-0.34003 8.51926,-0.3428 10.49033,-0.005 4.7601,0.8165 9.13592,3.59998 13.646013,8.68028 0.79482,0.89531 0.91953,1.10468 0.91544,1.5368 -0.003,0.27516 -0.0778,0.63018 -0.16704,0.78893 -0.20073,0.35696 -2.574483,2.47721 -4.117193,3.6775 -1.90738,1.48402 -2.9565,2.85216 -4.71811,6.15286 -1.90311,3.56582 -2.5925,7.13434 -2.44685,12.66572 0.11597,4.40403 0.51498,6.04448 2.42676,9.97704 0.83807,1.72393 1.408,2.68576 2.29634,3.87541 1.33219,1.78405 3.76576,4.35771 5.24963,5.55183 1.125653,0.90585 3.275803,2.37819 3.473013,2.37819 0.25732,0 0.54725,0.6029 0.54725,1.138 0,1.14544 -1.77866,6.53253 -3.10993,9.41914 -0.641453,1.39088 -1.671093,3.10168 -2.556103,4.24712 -0.4108,0.53169 -1.64063,2.30426 -2.73296,3.93905 -2.13471,3.19484 -2.37914,3.51535 -4.14235,5.4317 -1.97991,2.15188 -2.50949,2.62849 -4.17446,3.75695 -2.59545,1.75911 -5.03699,2.7395 -7.21954,2.89899 -1.49671,0.10936 -2.73844,-0.26592 -6.01566,-1.8181 -0.633997,-0.30027 -2.167456,-0.87449 -3.407693,-1.27603 -5.179332,-1.67689 -5.848582,-1.78954 -9.28054,-1.56203 -3.375687,0.22378 -4.175676,0.46506 -10.681039,3.22148 -0.477745,0.20243 -1.379778,0.5828 -2.004523,0.84528 -2.250877,0.94565 -4.917943,1.41134 -6.614919,1.15502 z"
             id="path59"
             inkscape:connector-curvature="0" />
        </a>
        <path
           inkscape:connector-curvature="0"
           id="path61"
           d="m 59.258406,146.83484 c -0.270026,-0.0285 -0.560295,-0.13536 -0.645039,-0.23747 -0.307906,-0.371 -0.322175,-2.56825 -0.02604,-4.00892 0.478605,-2.3283 2.315123,-6.96971 3.542734,-8.95353 1.530377,-2.47308 5.215723,-6.39397 7.672316,-8.16268 2.251591,-1.62111 2.455519,-1.74849 4.14274,-2.58765 1.80058,-0.89555 3.22615,-1.30735 4.94925,-1.42966 1.36579,-0.0969 2.06504,0.0693 2.3923,0.56876 0.32404,0.49455 0.17161,2.63361 -0.35127,4.9295 -1.02053,4.48094 -3.32414,8.8027 -6.60706,12.39538 -3.551685,3.88681 -7.232764,6.11501 -11.973105,7.24746 -1.320795,0.31553 -1.92696,0.36227 -3.096837,0.23881 z"
           style="fill:#ffffff;fill-opacity:1;stroke-width:0.13363476" />
        <flowRoot
           transform="matrix(1.3571941,0,0,1.3571941,-464.06426,-160.56294)"
           style="font-style:normal;font-weight:normal;font-size:40px;line-height:1.25;font-family:sans-serif;letter-spacing:0px;word-spacing:0px;fill:#000000;fill-opacity:1;stroke:none"
           id="flowRoot66"
           xml:space="preserve"><flowRegion
             id="flowRegion68"><rect
               y="236.70081"
               x="416"
               height="315"
               width="350"
               id="rect70" /></flowRegion><flowPara
             id="flowPara72"><flowSpan
               id="flowSpan74"
               style="fill:#ffffff">Ical</flowSpan></flowPara></flowRoot>      </g>
    </g>
  </g>
</svg>
