<?xml version="1.0" encoding="UTF-8" standalone="no"?>
<!-- Created with Inkscape (http://www.inkscape.org/) -->

<svg
   xmlns:dc="http://purl.org/dc/elements/1.1/"
   xmlns:cc="http://creativecommons.org/ns#"
   xmlns:rdf="http://www.w3.org/1999/02/22-rdf-syntax-ns#"
   xmlns:svg="http://www.w3.org/2000/svg"
   xmlns="http://www.w3.org/2000/svg"
   xmlns:sodipodi="http://sodipodi.sourceforge.net/DTD/sodipodi-0.dtd"
   xmlns:inkscape="http://www.inkscape.org/namespaces/inkscape"
   width="187.97244mm"
   height="113.49642mm"
   viewBox="0 0 187.97244 113.49642"
   version="1.1"
   id="svg8"
   inkscape:version="0.92.1 r15371"
   sodipodi:docname="sadfgasfgasfg.svg">
  <defs
     id="defs2">
    <clipPath
       id="clipPath3929"
       clipPathUnits="userSpaceOnUse">
      <g
         style="fill:#e9e9e9;fill-opacity:1"
         id="use3931"
         inkscape:label="Clip">
        <path
           style="fill:#e9e9e9;fill-opacity:1;stroke-width:0.13363476"
           d="m 41.708673,234.85566 c -1.663854,-0.25133 -2.442303,-0.62135 -5.479026,-2.60434 -1.796222,-1.17295 -3.735269,-2.78926 -4.821288,-4.01882 -1.988325,-2.25114 -2.864075,-3.31237 -4.177525,-5.06228 -1.463619,-1.95 -3.830674,-5.48182 -4.522935,-6.74856 -0.220917,-0.40425 -0.988507,-1.69716 -1.705758,-2.87315 -1.391394,-2.28129 -2.413186,-4.22173 -2.937616,-5.57869 -0.177652,-0.45968 -0.602504,-1.49727 -0.944115,-2.30576 -1.24749,-2.95243 -2.108644,-5.64353 -2.5248,-7.88999 -0.10949,-0.59104 -0.354285,-1.7622 -0.543988,-2.60257 -0.189703,-0.84038 -0.506952,-2.73216 -0.704996,-4.20396 -0.331138,-2.4609 -0.360457,-3.04658 -0.364755,-7.2864 -0.0045,-4.39992 0.01273,-4.72631 0.376485,-7.14946 0.587732,-3.91513 1.206271,-6.10179 2.931238,-10.36251 1.719321,-4.24678 3.396411,-6.74814 6.970675,-10.39672 2.425581,-2.476 4.442566,-3.90064 8.056192,-5.69026 2.673985,-1.32427 3.884142,-1.61918 7.473612,-1.82127 5.534702,-0.31162 8.471217,0.16756 13.141658,2.14446 5.120748,2.1675 5.388721,2.26544 6.767433,2.47325 1.571604,0.23688 2.417802,0.24956 3.671654,0.055 0.911495,-0.14142 1.379802,-0.3365 5.225566,-2.17674 2.701047,-1.29249 5.504635,-2.14707 8.456423,-2.57768 2.33085,-0.34003 8.51926,-0.3428 10.49033,-0.005 4.7601,0.8165 9.13592,3.59998 13.646013,8.68028 0.79482,0.89531 0.91953,1.10468 0.91544,1.5368 -0.003,0.27516 -0.0778,0.63018 -0.16704,0.78893 -0.20073,0.35696 -2.574483,2.47721 -4.117193,3.6775 -1.90738,1.48402 -2.9565,2.85216 -4.71811,6.15286 -1.90311,3.56582 -2.5925,7.13434 -2.44685,12.66572 0.11597,4.40403 0.51498,6.04448 2.42676,9.97704 0.83807,1.72393 1.408,2.68576 2.29634,3.87541 1.33219,1.78405 3.76576,4.35771 5.24963,5.55183 1.125653,0.90585 3.275803,2.37819 3.473013,2.37819 0.25732,0 0.54725,0.6029 0.54725,1.138 0,1.14544 -1.77866,6.53253 -3.10993,9.41914 -0.641453,1.39088 -1.671093,3.10168 -2.556103,4.24712 -0.4108,0.53169 -1.64063,2.30426 -2.73296,3.93905 -2.13471,3.19484 -2.37914,3.51535 -4.14235,5.4317 -1.97991,2.15188 -2.50949,2.62849 -4.17446,3.75695 -2.59545,1.75911 -5.03699,2.7395 -7.21954,2.89899 -1.49671,0.10936 -2.73844,-0.26592 -6.01566,-1.8181 -0.633997,-0.30027 -2.167456,-0.87449 -3.407693,-1.27603 -5.179332,-1.67689 -5.848582,-1.78954 -9.28054,-1.56203 -3.375687,0.22378 -4.175676,0.46506 -10.681039,3.22148 -0.477745,0.20243 -1.379778,0.5828 -2.004523,0.84528 -2.250877,0.94565 -4.917943,1.41134 -6.614919,1.15502 z"
           id="path40"
           inkscape:connector-curvature="0" />
        <path
           style="fill:#e9e9e9;fill-opacity:1;stroke-width:0.13363476"
           d="m 59.258406,146.83484 c -0.270026,-0.0285 -0.560295,-0.13536 -0.645039,-0.23747 -0.307906,-0.371 -0.322175,-2.56825 -0.02604,-4.00892 0.478605,-2.3283 2.315123,-6.96971 3.542734,-8.95353 1.530377,-2.47308 5.215723,-6.39397 7.672316,-8.16268 2.251591,-1.62111 2.455519,-1.74849 4.14274,-2.58765 1.80058,-0.89555 3.22615,-1.30735 4.94925,-1.42966 1.36579,-0.0969 2.06504,0.0693 2.3923,0.56876 0.32404,0.49455 0.17161,2.63361 -0.35127,4.9295 -1.02053,4.48094 -3.32414,8.8027 -6.60706,12.39538 -3.551685,3.88681 -7.232764,6.11501 -11.973105,7.24746 -1.320795,0.31553 -1.92696,0.36227 -3.096837,0.23881 z"
           id="path42"
           inkscape:connector-curvature="0" />
        <flowRoot
           xml:space="preserve"
           id="flowRoot52"
           style="font-style:normal;font-weight:normal;font-size:40px;line-height:1.25;font-family:sans-serif;letter-spacing:0px;word-spacing:0px;fill:#e9e9e9;fill-opacity:1;stroke:none"
           transform="matrix(1.3571941,0,0,1.3571941,-457.44968,-178.29003)"><flowRegion
             style="fill:#e9e9e9;fill-opacity:1"
             id="flowRegion46"><rect
               style="fill:#e9e9e9;fill-opacity:1"
               id="rect44"
               width="350"
               height="315"
               x="416"
               y="236.70081" /></flowRegion><flowPara
             id="flowPara50"><flowSpan
               style="fill:#e9e9e9;fill-opacity:1"
               id="flowSpan48">Ical</flowSpan></flowPara></flowRoot>      </g>
    </clipPath>
    <clipPath
       id="clipPath74"
       clipPathUnits="userSpaceOnUse">
      <path
         inkscape:connector-curvature="0"
         id="path72"
         d="M 81.434,0.195 C 76.715,0.91 74.508,1.957 65.902,7.578 60.809,10.906 55.313,15.484 52.234,18.972 46.598,25.351 44.117,28.359 40.391,33.32 36.242,38.847 29.535,48.859 27.57,52.449 c -0.625,1.148 -2.8,4.812 -4.836,8.144 -3.941,6.469 -6.839,11.969 -8.324,15.817 -0.504,1.3 -1.711,4.242 -2.676,6.535 -3.539,8.367 -5.98,15.996 -7.16,22.363 -0.308,1.676 -1.004,4.996 -1.539,7.379 -0.539,2.383 -1.437,7.746 -2,11.918 -0.937,6.977 -1.023,8.637 -1.035,20.652 -0.012,12.473 0.039,13.399 1.07,20.266 1.664,11.098 3.418,17.297 8.309,29.375 4.871,12.039 9.625,19.129 19.758,29.473 6.875,7.015 12.593,11.054 22.836,16.128 7.582,3.754 11.011,4.59 21.187,5.165 15.688,0.882 24.012,-0.477 37.25,-6.082 14.516,-6.141 15.278,-6.422 19.184,-7.008 4.453,-0.672 6.855,-0.707 10.406,-0.157 2.586,0.399 3.914,0.954 14.813,6.168 7.66,3.664 15.605,6.086 23.972,7.309 6.606,0.965 24.149,0.973 29.738,0.016 13.493,-2.317 25.895,-10.207 38.68,-24.606 2.254,-2.539 2.606,-3.133 2.594,-4.359 -0.008,-0.778 -0.219,-1.785 -0.473,-2.235 -0.57,-1.011 -7.297,-7.023 -11.672,-10.425 -5.406,-4.207 -8.379,-8.086 -13.371,-17.442 -5.394,-10.105 -7.351,-20.222 -6.937,-35.902 0.328,-12.484 1.461,-17.133 6.879,-28.281 2.375,-4.887 3.992,-7.614 6.507,-10.985 3.778,-5.058 10.676,-12.351 14.883,-15.738 3.192,-2.566 9.285,-6.742 9.844,-6.742 0.731,0 1.551,-1.707 1.551,-3.227 0,-3.246 -5.039,-18.515 -8.813,-26.699 -1.82,-3.941 -4.738,-8.793 -7.246,-12.039 -1.164,-1.508 -4.652,-6.531 -7.75,-11.164 -6.051,-9.059 -6.742,-9.965 -11.742,-15.399 C 215.848,14.57 214.344,13.218 209.625,10.019 202.27,5.031 195.348,2.253 189.16,1.8 c -4.242,-0.308 -7.762,0.754 -17.051,5.153 -1.796,0.851 -6.144,2.48 -9.66,3.617 -14.683,4.754 -16.578,5.074 -26.308,4.429 -9.567,-0.632 -11.836,-1.32 -30.278,-9.132 -1.351,-0.575 -3.91,-1.653 -5.679,-2.395 -6.383,-2.68 -13.942,-4 -18.75,-3.273 z m 49.746,249.508 c -0.766,0.082 -1.59,0.386 -1.828,0.675 -0.875,1.051 -0.914,7.278 -0.075,11.364 1.356,6.601 6.563,19.757 10.043,25.379 4.336,7.011 14.785,18.125 21.746,23.14 6.383,4.594 6.961,4.953 11.747,7.332 5.101,2.539 9.144,3.707 14.027,4.055 3.871,0.273 5.855,-0.195 6.781,-1.613 0.918,-1.403 0.488,-7.465 -0.996,-13.973 -2.891,-12.703 -9.422,-24.953 -18.727,-35.137 -10.07,-11.019 -20.503,-17.332 -33.941,-20.543 -3.742,-0.894 -5.461,-1.027 -8.777,-0.679 z M 321.43,120.296 h -44.219 v 11.438 h 14.672 v 89.094 h -14.672 v 11.437 h 44.219 v -11.437 h -14.657 v -89.094 h 14.657 z m 86.422,5.266 c -4.711,-2.262 -9.184,-4.016 -13.422,-5.266 -4.231,-1.25 -8.727,-1.875 -13.485,-1.875 -6.074,0 -11.64,0.887 -16.703,2.657 -5.062,1.781 -9.398,4.476 -13,8.093 -3.668,3.602 -6.508,8.161 -8.515,13.672 -2,5.52 -3,11.969 -3,19.344 0,13.727 3.769,24.504 11.312,32.328 7.551,7.82 17.52,11.734 29.906,11.734 4.813,0 9.535,-0.679 14.172,-2.031 4.633,-1.355 8.879,-3.011 12.735,-4.969 v -15.718 h -0.75 c -4.313,3.363 -8.762,5.945 -13.344,7.75 -4.586,1.801 -9.059,2.703 -13.422,2.703 -8.023,0 -14.352,-2.695 -18.984,-8.078 -4.637,-5.387 -6.954,-13.293 -6.954,-23.719 0,-10.137 2.266,-17.922 6.797,-23.359 4.539,-5.438 10.922,-8.157 19.141,-8.157 2.852,0 5.758,0.375 8.719,1.125 2.957,0.758 5.613,1.739 7.968,2.938 2.063,1.051 3.993,2.164 5.797,3.344 1.801,1.175 3.227,2.191 4.282,3.046 h 0.75 z m 83.421,-5.266 h -14.062 v 8.953 c -1.262,-0.855 -2.961,-2.046 -5.094,-3.578 -2.125,-1.531 -4.187,-2.746 -6.187,-3.64 -2.356,-1.157 -5.063,-2.117 -8.125,-2.891 -3.063,-0.781 -6.649,-1.172 -10.75,-1.172 -7.575,0 -13.992,2.504 -19.25,7.516 -5.262,5.008 -7.891,11.398 -7.891,19.172 0,6.363 1.363,11.515 4.094,15.453 2.726,3.937 6.625,7.035 11.687,9.297 5.114,2.25 11.254,3.773 18.422,4.578 7.164,0.801 14.863,1.406 23.094,1.812 v 2.172 c 0,3.207 -0.57,5.864 -1.703,7.969 -1.125,2.102 -2.742,3.758 -4.844,4.969 -2.012,1.156 -4.422,1.929 -7.234,2.328 -2.805,0.406 -5.731,0.609 -8.782,0.609 -3.71,0 -7.843,-0.492 -12.406,-1.469 -4.562,-0.98 -9.277,-2.398 -14.14,-4.25 h -0.75 v 14.36 c 2.757,0.75 6.742,1.578 11.953,2.484 5.218,0.906 10.359,1.36 15.422,1.36 5.914,0 11.066,-0.493 15.453,-1.469 4.383,-0.981 8.179,-2.649 11.39,-5 3.157,-2.313 5.563,-5.297 7.219,-8.953 1.656,-3.657 2.484,-8.196 2.484,-13.61 z m -14.062,20.672 v 23.391 c -4.313,-0.25 -9.391,-0.625 -15.234,-1.125 -5.844,-0.5 -10.469,-1.231 -13.875,-2.188 -4.063,-1.148 -7.352,-2.937 -9.86,-5.375 -2.5,-2.429 -3.75,-5.773 -3.75,-10.031 0,-4.812 1.453,-8.437 4.36,-10.875 2.906,-2.43 7.343,-3.641 13.312,-3.641 4.969,0 9.504,0.961 13.609,2.891 4.114,1.938 7.926,4.254 11.438,6.953 z m 55.648,-20.672 h -14.14 v 117 h 14.14 z" />
    </clipPath>
    <clipPath
       id="clipPath84"
       clipPathUnits="userSpaceOnUse">
      <path
         inkscape:connector-curvature="0"
         id="path82"
         d="M 0,0 H 533 V 322 H 0 Z" />
    </clipPath>
  </defs>
  <sodipodi:namedview
     id="base"
     pagecolor="#ffffff"
     bordercolor="#666666"
     borderopacity="1.0"
     inkscape:pageopacity="0.0"
     inkscape:pageshadow="2"
     inkscape:zoom="5.6"
     inkscape:cx="217.79865"
     inkscape:cy="222.30141"
     inkscape:document-units="mm"
     inkscape:current-layer="layer1"
     showgrid="false"
     fit-margin-top="0"
     fit-margin-left="0"
     fit-margin-right="0"
     fit-margin-bottom="0"
     inkscape:window-width="1920"
     inkscape:window-height="1017"
     inkscape:window-x="-8"
     inkscape:window-y="-8"
     inkscape:window-maximized="1"
     inkscape:measure-start="0,0"
     inkscape:measure-end="0,0" />
  <metadata
     id="metadata5">
    <rdf:RDF>
      <cc:Work
         rdf:about="">
        <dc:format>image/svg+xml</dc:format>
        <dc:type
           rdf:resource="http://purl.org/dc/dcmitype/StillImage" />
        <dc:title></dc:title>
      </cc:Work>
    </rdf:RDF>
  </metadata>
  <g
     inkscape:label="Layer 1"
     inkscape:groupmode="layer"
     id="layer1"
     transform="translate(-11.091153,-6.6625065)">
    <g
       transform="matrix(0.35277777,0,0,-0.35277777,10.468806,120.91513)"
       inkscape:label="drawing"
       id="g64"
       style="fill:#ffffff">
      <g
         id="g66"
         style="fill:#ffffff" />
      <g
         id="g68"
         style="fill:#ffffff">
        <g
           clip-path="url(#clipPath74)"
           id="g70"
           style="fill:#ffffff">
          <g
             transform="translate(0,-0.277863)"
             id="g76"
             style="fill:#ffffff">
            <g
               id="g78"
               style="fill:#ffffff">
              <g
                 clip-path="url(#clipPath84)"
                 id="g80"
                 style="fill:#ffffff">
                <g
                   id="g86"
                   style="fill:#ffffff">
                  <path
                     inkscape:connector-curvature="0"
                     id="path88"
                     style="fill:#ffffff;fill-opacity:1;fill-rule:nonzero;stroke:none"
                     d="M 81.434,0.473 C 76.715,1.188 74.508,2.234 65.902,7.855 60.809,11.184 55.313,15.762 52.234,19.25 46.598,25.629 44.117,28.637 40.391,33.598 36.242,39.125 29.535,49.137 27.57,52.727 c -0.625,1.148 -2.8,4.812 -4.836,8.144 -3.941,6.469 -6.839,11.969 -8.324,15.817 -0.504,1.3 -1.711,4.242 -2.676,6.535 -3.539,8.367 -5.98,15.996 -7.16,22.363 -0.308,1.676 -1.004,4.996 -1.539,7.379 -0.539,2.383 -1.437,7.746 -2,11.918 -0.937,6.976 -1.023,8.637 -1.035,20.652 -0.012,12.473 0.039,13.399 1.07,20.266 1.664,11.097 3.418,17.297 8.309,29.375 4.871,12.039 9.625,19.129 19.758,29.472 6.875,7.016 12.593,11.055 22.836,16.129 7.582,3.754 11.011,4.59 21.187,5.164 15.688,0.883 24.012,-0.476 37.25,-6.082 14.516,-6.14 15.278,-6.421 19.184,-7.007 4.453,-0.672 6.855,-0.707 10.406,-0.157 2.586,0.399 3.914,0.953 14.813,6.168 7.66,3.664 15.605,6.086 23.972,7.309 6.606,0.965 24.149,0.973 29.738,0.016 13.493,-2.317 25.895,-10.208 38.68,-24.606 2.254,-2.539 2.606,-3.133 2.594,-4.359 -0.008,-0.778 -0.219,-1.785 -0.473,-2.235 -0.57,-1.011 -7.297,-7.023 -11.672,-10.425 -5.406,-4.208 -8.379,-8.086 -13.371,-17.442 -5.394,-10.105 -7.351,-20.223 -6.937,-35.902 0.328,-12.485 1.461,-17.133 6.879,-28.281 2.375,-4.887 3.992,-7.614 6.507,-10.985 3.778,-5.058 10.676,-12.351 14.883,-15.738 3.192,-2.567 9.285,-6.742 9.844,-6.742 0.731,0 1.551,-1.707 1.551,-3.227 0,-3.246 -5.039,-18.516 -8.813,-26.699 -1.82,-3.942 -4.738,-8.793 -7.246,-12.039 -1.164,-1.508 -4.652,-6.531 -7.75,-11.164 -6.051,-9.059 -6.742,-9.965 -11.742,-15.399 -5.609,-6.097 -7.113,-7.449 -11.832,-10.648 C 202.27,5.309 195.348,2.531 189.16,2.078 184.918,1.77 181.398,2.832 172.109,7.23 c -1.796,0.852 -6.144,2.481 -9.66,3.618 -14.683,4.754 -16.578,5.074 -26.308,4.429 -9.567,-0.632 -11.836,-1.32 -30.278,-9.132 -1.351,-0.575 -3.91,-1.653 -5.679,-2.395 -6.383,-2.68 -13.942,-4 -18.75,-3.273 z" />
                  <path
                     inkscape:connector-curvature="0"
                     id="path90"
                     style="fill:#ffffff;fill-opacity:1;fill-rule:nonzero;stroke:none"
                     d="m 131.18,249.98 c -0.766,0.083 -1.59,0.387 -1.828,0.676 -0.875,1.051 -0.914,7.278 -0.075,11.364 1.356,6.601 6.563,19.757 10.043,25.378 4.336,7.012 14.785,18.125 21.746,23.141 6.383,4.594 6.961,4.953 11.747,7.332 5.101,2.539 9.144,3.707 14.027,4.055 3.871,0.273 5.855,-0.196 6.781,-1.613 0.918,-1.403 0.488,-7.465 -0.996,-13.973 -2.891,-12.703 -9.422,-24.953 -18.727,-35.137 -10.07,-11.019 -20.503,-17.332 -33.941,-20.543 -3.742,-0.894 -5.461,-1.027 -8.777,-0.68 z" />
                  <text
                     id="text94"
                     style="font-variant:normal;font-weight:normal;font-size:153.88658142px;font-family:Verdana;-inkscape-font-specification:Verdana;writing-mode:lr-tb;fill:#ffffff;fill-opacity:1;fill-rule:nonzero;stroke:none"
                     transform="matrix(1,0,0,-1,266.91508,120.57237)">
                    <tspan
                       id="tspan92"
                       sodipodi:role="line"
                       y="0" 
                       x="0 64.632362 144.65338 236.98532">Ical</tspan>
                  </text>
                </g>
              </g>
            </g>
          </g>
        </g>
      </g>
    </g>
  </g>
</svg>
